# xmcd
#
# Track frame offsets:
#	150
#	9897
#	26274
#	38258
#	51798
#	63395
#	78163
#	89276
#	99313
#	110473
#
# Disc length: 1597 seconds
#
# Revision: 1
# Processed by: cddbd v1.5.2PL0 Copyright (c) Steve Scherf et al.
# Submitted via: audiograbber 1.83.01
#
DISCID=5f063b0a
DTITLE=Porter Wagoner - What Ain't To Be Just Might Happen
DYEAR=1972
DGENRE=Country
TTITLE0=What Ain't To Be Just Might Happen
TTITLE1=Waldo The Weirdo
TTITLE2=The Rubber Room
TTITLE3=If I Lose My Mind
TTITLE4=Comes And Goes
TTITLE5=I Found A Man
TTITLE6=More Than Words Can Tell
TTITLE7=Little Bird
TTITLE8=Sitting In The Shade
TTITLE9=Many Kinds Of Love
EXTD=
EXTT0=
EXTT1=
EXTT2=
EXTT3=
EXTT4=
EXTT5=
EXTT6=
EXTT7=
EXTT8=
EXTT9=
PLAYORDER=
